<svg xmlns="http://www.w3.org/2000/svg" viewBox="0 0 48 48">
  <defs>
    <linearGradient id="badge" x1="0" y1="0" x2="1" y2="1">
      <stop offset="0" stop-color="#38bdf8"/>
      <stop offset="0.55" stop-color="#0ea5e9"/>
      <stop offset="1" stop-color="#0369a1"/>
    </linearGradient>
    <linearGradient id="fish" x1="0" y1="0" x2="1" y2="1">
      <stop offset="0" stop-color="#ffffff"/>
      <stop offset="1" stop-color="#dff1fe"/>
    </linearGradient>
  </defs>
  <rect width="48" height="48" rx="13" fill="url(#badge)"/>
  <g stroke="#bae6fd" stroke-width="2.4" stroke-linecap="round" opacity="0.85">
    <line x1="4.5" y1="19" x2="9" y2="19"/>
    <line x1="3" y1="24.5" x2="8.5" y2="24.5"/>
    <line x1="4.5" y1="30" x2="9" y2="30"/>
  </g>
  <path d="M20 14.5 Q 24 8 28.5 14 Q 24 15 20 14.5 Z" fill="url(#fish)"/>
  <path d="M11 24.5 C 16 15 29 15 33.5 24.5 C 29 34 16 34 11 24.5 Z" fill="url(#fish)"/>
  <path d="M32 24.5 L 42 18 C 39.5 24.5 39.5 24.5 42 31 Z" fill="url(#fish)"/>
  <circle cx="18" cy="22.5" r="2.1" fill="#0c4a6e"/>
  <circle cx="35" cy="15" r="2" fill="#7dd3fc"/>
</svg>
